Coordinates
version=1
nRows=20
nColumns=33
inDegrees=yes

Units are S.I. units (second, meters, Newtons, ...)
Angles are in degrees.

endheader
time	ground_thorax_rot_x	ground_thorax_rot_y	ground_thorax_rot_z	ground_thorax_tx	ground_thorax_ty	ground_thorax_tz	clav_prot_r	clav_elev_r	scapula_abduction_r	scapula_elevation_r	scapula_upward_rot_r	scapula_winging_r	shoulder_elv_r	plane_of_elev_r	axial_rot_r	elbow_flexion_r	pro_sup_r	wrist_flex_r	wrist_dev_r	clav_prot_l	clav_elev_l	scapula_abduction_l	scapula_elevation_l	scapula_upward_rot_l	scapula_winging_l	shoulder_elv_l	plane_of_elev_l	axial_rot_l	elbow_flexion_l	pro_sup_l	wrist_flex_l	wrist_dev_l	
5.9800	36.134394	1.845027	8.028624	-61.081125	794.845002	1.542266	16.687112	42.356604	45.000000	45.000000	-27.793347	-2956.333113	-1551.058686	143.859045	180.000000	1088.364371	38.420168	19.380647	15.576722	6.002060	-45.000000	-45.000000	45.000000	-10.316240	-275.299911	-3890.935601	27.237302	7.389669	359.136194	43.538323	10.646405	-18.944996	
5.9900	36.116577	1.709827	8.047678	-60.596251	795.088748	1.637762	16.672014	42.380073	45.000000	45.000000	-27.736791	-2956.283360	-1551.058390	143.854893	180.000000	1088.347242	38.476219	19.380658	15.555451	6.036642	-45.000000	-45.000000	45.000000	-10.249594	-275.390808	-3890.891550	27.209371	7.383516	359.111103	43.691872	10.633696	-18.833282	
6.0000	36.099931	1.585216	8.075491	-60.198213	795.337519	1.721142	16.641041	42.410463	45.000000	45.000000	-27.678101	-2956.229307	-1551.048257	143.882936	180.000000	1088.346446	38.524380	19.375627	15.512701	6.079603	-45.000000	-45.000000	45.000000	-10.193949	-275.478453	-3890.831923	27.162709	7.378648	359.113609	43.853855	10.647368	-18.697055	
6.0100	36.084613	1.453034	8.086804	-59.985846	795.602624	1.780637	16.604374	42.413995	45.000000	45.000000	-27.617611	-2956.213375	-1551.035222	143.891902	180.000000	1088.361496	38.568698	19.393698	15.487737	6.066921	-45.000000	-45.000000	45.000000	-10.074525	-275.510884	-3890.790471	27.140235	7.377127	359.096435	44.026129	10.628972	-18.627420	
6.0200	36.072192	1.320715	8.089713	-59.973899	795.881114	1.813164	16.563854	42.401484	45.000000	45.000000	-27.570859	-2956.241704	-1551.013099	143.878798	180.000000	1088.396168	38.602524	19.426050	15.465665	6.028997	-45.000000	-45.000000	45.000000	-9.926258	-275.490944	-3890.759134	27.136914	7.383636	359.087311	44.198980	10.600668	-18.601273	
6.0300	36.057641	1.206173	8.107137	-60.189985	796.173187	1.814871	16.511226	42.363055	45.000000	45.000000	-27.536482	-2956.289209	-1550.979689	143.880744	180.000000	1088.453432	38.619963	19.471618	15.440206	5.966713	-45.000000	-45.000000	45.000000	-9.757611	-275.427447	-3890.724606	27.132256	7.400051	359.086369	44.364621	10.567923	-18.605580	
6.0400	36.043106	1.106043	8.134509	-60.638449	796.477758	1.785376	16.460249	42.319476	45.000000	45.000000	-27.542647	-2956.375664	-1550.927198	143.867760	180.000000	1088.532198	38.615603	19.526096	15.408596	5.900698	-45.000000	-45.000000	45.000000	-9.595670	-275.314150	-3890.689580	27.139060	7.427291	359.108812	44.506465	10.533029	-18.643006	
6.0500	36.024219	1.034192	8.188064	-61.313279	796.795607	1.726656	16.404504	42.253700	45.000000	45.000000	-27.582786	-2956.474862	-1550.856191	143.872814	180.000000	1088.630653	38.584171	19.585712	15.363897	5.838285	-45.000000	-45.000000	45.000000	-9.454754	-275.171279	-3890.639858	27.139875	7.459207	359.153005	44.613658	10.506423	-18.690418	
6.0600	36.003313	0.977372	8.248066	-62.208553	797.131625	1.641971	16.355307	42.201254	45.000000	45.000000	-27.678676	-2956.608653	-1550.756553	143.859118	180.000000	1088.747566	38.524193	19.649079	15.309150	5.784997	-45.000000	-45.000000	45.000000	-9.342503	-274.992259	-3890.581554	27.154877	7.481190	359.221818	44.673832	10.479748	-18.761331	
6.0700	35.976232	0.949250	8.333723	-63.319138	797.494253	1.535305	16.309642	42.155802	45.000000	45.000000	-27.822206	-2956.746398	-1550.626745	143.870341	180.000000	1088.886492	38.432562	19.714127	15.238069	5.738549	-45.000000	-45.000000	45.000000	-9.261068	-274.790657	-3890.505833	27.160426	7.476520	359.315729	44.682962	10.454309	-18.840424	
6.0800	35.945767	0.938965	8.429864	-64.640898	797.894572	1.410858	16.275053	42.144814	45.000000	45.000000	-28.027349	-2956.907926	-1550.462415	143.877485	180.000000	1089.051067	38.309982	19.780111	15.150723	5.705184	-45.000000	-45.000000	45.000000	-9.214703	-274.557716	-3890.422502	27.168093	7.427594	359.451832	44.635866	10.423804	-18.939677	
6.0900	35.911155	0.951615	8.547727	-66.171307	798.345254	1.272529	16.247117	42.128055	45.000000	45.000000	-28.271616	-2957.084662	-1550.276322	143.898124	180.000000	1089.235765	38.160535	19.848640	15.047414	5.680716	-45.000000	-45.000000	45.000000	-9.192742	-274.298919	-3890.329583	27.166113	7.313664	359.625284	44.534424	10.389370	-19.052587	
6.1000	35.875175	0.977203	8.676479	-67.909044	798.859183	1.123629	16.223725	42.119987	45.000000	45.000000	-28.553675	-2957.287008	-1550.070491	143.915151	180.000000	1089.434726	37.992121	19.919096	14.927968	5.665424	-45.000000	-45.000000	45.000000	-9.190178	-274.012547	-3890.229465	27.157554	7.110916	359.839968	44.380432	10.347822	-19.185111	
6.1100	35.838195	1.023604	8.829602	-69.854267	799.448425	0.966718	16.205891	42.096761	44.999999	45.000000	-28.865172	-2957.504140	-1549.850547	143.945816	180.000000	1089.639401	37.812895	19.991625	14.791949	5.658075	-45.000000	-45.000000	45.000000	-9.205719	-273.702262	-3890.118932	27.130210	6.796549	360.087089	44.177179	10.298373	-19.330865	
6.1200	35.801620	1.084673	8.994595	-72.007722	800.122966	0.803712	16.189997	42.064162	44.999999	45.000000	-29.205308	-2957.742713	-1549.618506	143.976672	180.000000	1089.843520	37.632286	20.066590	14.639208	5.659800	-45.000000	-45.000000	45.000000	-9.238308	-273.369917	-3889.998781	27.087443	6.351365	360.368034	43.925068	10.239468	-19.492394	
6.1300	35.767339	1.155201	9.165373	-74.370832	800.890135	0.636061	16.174886	41.996505	44.999998	45.000000	-29.560186	-2958.010404	-1549.382256	144.000445	180.000000	1090.040915	37.459392	20.145872	14.470979	5.668369	-45.000000	-44.999999	45.000000	-9.278514	-273.013484	-3889.868844	27.031365	5.765157	360.677575	43.623562	10.171466	-19.667838	
6.1400	35.735376	1.231800	9.332492	-76.944700	801.753980	0.465061	16.158140	41.913539	44.999996	45.000000	-29.926392	-2958.301376	-1549.140996	144.022199	180.000000	1090.231429	37.300438	20.228464	14.283187	5.681381	-45.000000	-44.999999	45.000000	-9.320603	-272.638147	-3889.728505	26.957340	5.044325	361.018017	43.269281	10.091985	-19.854791	
6.1500	35.705453	1.318786	9.498329	-79.730235	802.715322	0.292058	16.150281	41.829759	44.999992	45.000000	-30.316378	-2958.607854	-1548.886601	144.046348	180.000000	1090.420058	37.158196	20.312531	14.072622	5.701994	-45.000000	-44.999998	45.000000	-9.371721	-272.244635	-3889.575772	26.866199	4.204927	361.387290	42.856946	9.999705	-20.046287	
6.1600	35.678535	1.413258	9.653213	-82.727107	803.771699	0.118620	16.147815	41.740349	44.999986	45.000000	-30.727475	-2958.929853	-1548.623304	144.071771	180.000000	1090.600376	37.036938	20.397566	13.839311	5.729277	-45.000000	-44.999997	45.000000	-9.426019	-271.836923	-3889.411672	26.760943	3.272450	361.779035	42.382860	9.895946	-20.240020	
6.1700	35.654964	1.515481	9.798375	-85.933809	804.917810	-0.053444	16.159532	41.645230	44.999975	45.000000	-31.171134	-2959.266111	-1548.346737	144.094478	180.000000	1090.777635	36.942223	20.482830	13.584851	5.766131	-45.000000	-44.999994	45.000000	-9.493039	-271.414695	-3889.233643	26.648639	2.272077	362.186044	41.842879	9.782412	-20.429626	
